<svg width="20" height="19" viewBox="0 0 20 19" fill="none" xmlns="http://www.w3.org/2000/svg">
<path d="M9.04896 1.42664C9.34833 0.505375 10.6517 0.505376 10.951 1.42664L12.4699 6.10055C12.6038 6.51254 12.9877 6.79148 13.4209 6.79149L18.3354 6.79168C19.3041 6.79172 19.7068 8.03127 18.9232 8.60067L14.9474 11.4895C14.5969 11.7441 14.4503 12.1955 14.5841 12.6075L16.1026 17.2815C16.4019 18.2028 15.3475 18.9689 14.5638 18.3995L10.5878 15.511C10.2373 15.2564 9.76272 15.2564 9.41225 15.511L5.43622 18.3995C4.65252 18.9689 3.5981 18.2028 3.8974 17.2815L5.41589 12.6075C5.54974 12.1955 5.40309 11.7441 5.05263 11.4895L1.07683 8.60067C0.293169 8.03127 0.695924 6.79172 1.66461 6.79168L6.57911 6.79149C7.01231 6.79148 7.39623 6.51254 7.53011 6.10055L9.04896 1.42664Z" fill="#FF9900"/>
</svg>
