<svg width="120" height="25" viewBox="0 0 120 25" fill="none" xmlns="http://www.w3.org/2000/svg">
<path d="M11.0489 3.42705C11.3483 2.50574 12.6517 2.50574 12.9511 3.42705L14.4697 8.10081C14.6035 8.51284 14.9875 8.7918 15.4207 8.7918H20.335C21.3037 8.7918 21.7065 10.0314 20.9228 10.6008L16.947 13.4894C16.5966 13.744 16.4499 14.1954 16.5838 14.6074L18.1024 19.2812C18.4017 20.2025 17.3472 20.9686 16.5635 20.3992L12.5878 17.5106C12.2373 17.256 11.7627 17.256 11.4122 17.5106L7.43648 20.3992C6.65276 20.9686 5.59828 20.2025 5.89763 19.2812L7.41623 14.6074C7.55011 14.1954 7.40345 13.744 7.05296 13.4894L3.07722 10.6008C2.29351 10.0314 2.69628 8.7918 3.66501 8.7918H8.57929C9.01252 8.7918 9.39647 8.51284 9.53035 8.10081L11.0489 3.42705Z" fill="#FF9900"/>
<path d="M35.0489 3.42705C35.3483 2.50574 36.6517 2.50574 36.9511 3.42705L38.4697 8.10081C38.6035 8.51284 38.9875 8.7918 39.4207 8.7918H44.335C45.3037 8.7918 45.7065 10.0314 44.9228 10.6008L40.947 13.4894C40.5966 13.744 40.4499 14.1954 40.5838 14.6074L42.1024 19.2812C42.4017 20.2025 41.3472 20.9686 40.5635 20.3992L36.5878 17.5106C36.2373 17.256 35.7627 17.256 35.4122 17.5106L31.4365 20.3992C30.6528 20.9686 29.5983 20.2025 29.8976 19.2812L31.4162 14.6074C31.5501 14.1954 31.4034 13.744 31.053 13.4894L27.0772 10.6008C26.2935 10.0314 26.6963 8.7918 27.665 8.7918H32.5793C33.0125 8.7918 33.3965 8.51284 33.5303 8.10081L35.0489 3.42705Z" fill="#FF9900"/>
<path d="M59.0489 3.42705C59.3483 2.50574 60.6517 2.50574 60.9511 3.42705L62.4697 8.10081C62.6035 8.51284 62.9875 8.7918 63.4207 8.7918H68.335C69.3037 8.7918 69.7065 10.0314 68.9228 10.6008L64.947 13.4894C64.5966 13.744 64.4499 14.1954 64.5838 14.6074L66.1024 19.2812C66.4017 20.2025 65.3472 20.9686 64.5635 20.3992L60.5878 17.5106C60.2373 17.256 59.7627 17.256 59.4122 17.5106L55.4365 20.3992C54.6528 20.9686 53.5983 20.2025 53.8976 19.2812L55.4162 14.6074C55.5501 14.1954 55.4034 13.744 55.053 13.4894L51.0772 10.6008C50.2935 10.0314 50.6963 8.7918 51.665 8.7918H56.5793C57.0125 8.7918 57.3965 8.51284 57.5303 8.10081L59.0489 3.42705Z" fill="#FF9900"/>
<path d="M83.0489 3.42705C83.3483 2.50574 84.6517 2.50574 84.9511 3.42705L86.4697 8.10081C86.6035 8.51284 86.9875 8.7918 87.4207 8.7918H92.335C93.3037 8.7918 93.7065 10.0314 92.9228 10.6008L88.947 13.4894C88.5966 13.744 88.4499 14.1954 88.5838 14.6074L90.1024 19.2812C90.4017 20.2025 89.3472 20.9686 88.5635 20.3992L84.5878 17.5106C84.2373 17.256 83.7627 17.256 83.4122 17.5106L79.4365 20.3992C78.6528 20.9686 77.5983 20.2025 77.8976 19.2812L79.4162 14.6074C79.5501 14.1954 79.4034 13.744 79.053 13.4894L75.0772 10.6008C74.2935 10.0314 74.6963 8.7918 75.665 8.7918H80.5793C81.0125 8.7918 81.3965 8.51284 81.5303 8.10081L83.0489 3.42705Z" fill="#FF9900"/>
<path d="M107.049 3.42705C107.348 2.50574 108.652 2.50574 108.951 3.42705L110.47 8.10081C110.604 8.51284 110.987 8.7918 111.421 8.7918H116.335C117.304 8.7918 117.706 10.0314 116.923 10.6008L112.947 13.4894C112.597 13.744 112.45 14.1954 112.584 14.6074L114.102 19.2812C114.402 20.2025 113.347 20.9686 112.564 20.3992L108.588 17.5106C108.237 17.256 107.763 17.256 107.412 17.5106L103.436 20.3992C102.653 20.9686 101.598 20.2025 101.898 19.2812L103.416 14.6074C103.55 14.1954 103.403 13.744 103.053 13.4894L99.0772 10.6008C98.2935 10.0314 98.6963 8.7918 99.665 8.7918H104.579C105.013 8.7918 105.396 8.51284 105.53 8.10081L107.049 3.42705Z" fill="#FF9900"/>
</svg>
