<svg width="60" height="36" viewBox="0 0 60 36" fill="none" xmlns="http://www.w3.org/2000/svg">
<path d="M13.056 9.248V11.96H8.592V26H5.232V11.96H0.768V9.248H13.056ZM28.0596 12.704V26H24.6756V24.32C24.2436 24.896 23.6756 25.352 22.9716 25.688C22.2836 26.008 21.5316 26.168 20.7156 26.168C19.6756 26.168 18.7556 25.952 17.9556 25.52C17.1556 25.072 16.5236 24.424 16.0596 23.576C15.6116 22.712 15.3876 21.688 15.3876 20.504V12.704H18.7476V20.024C18.7476 21.08 19.0116 21.896 19.5396 22.472C20.0676 23.032 20.7876 23.312 21.6996 23.312C22.6276 23.312 23.3556 23.032 23.8836 22.472C24.4116 21.896 24.6756 21.08 24.6756 20.024V12.704H28.0596ZM39.2468 26L34.7348 20.336V26H31.3748V8.24H34.7348V18.344L39.1988 12.704H43.5668L37.7108 19.376L43.6148 26H39.2468ZM57.9424 12.704V26H54.5584V24.32C54.1264 24.896 53.5584 25.352 52.8544 25.688C52.1664 26.008 51.4144 26.168 50.5984 26.168C49.5584 26.168 48.6384 25.952 47.8384 25.52C47.0384 25.072 46.4064 24.424 45.9424 23.576C45.4944 22.712 45.2704 21.688 45.2704 20.504V12.704H48.6304V20.024C48.6304 21.08 48.8944 21.896 49.4224 22.472C49.9504 23.032 50.6704 23.312 51.5824 23.312C52.5104 23.312 53.2384 23.032 53.7664 22.472C54.2944 21.896 54.5584 21.08 54.5584 20.024V12.704H57.9424Z" fill="#466BF3"/>
</svg>
