<svg width="120" height="25" viewBox="0 0 120 25" fill="none" xmlns="http://www.w3.org/2000/svg">
<path d="M11.049 3.42664C11.3483 2.50537 12.6517 2.50538 12.951 3.42664L14.4699 8.10055C14.6038 8.51254 14.9877 8.79148 15.4209 8.79149L20.3354 8.79168C21.3041 8.79172 21.7068 10.0313 20.9232 10.6007L16.9474 13.4895C16.5969 13.7441 16.4503 14.1955 16.5841 14.6075L18.1026 19.2815C18.4019 20.2028 17.3475 20.9689 16.5638 20.3995L12.5878 17.511C12.2373 17.2564 11.7627 17.2564 11.4122 17.511L7.43622 20.3995C6.65252 20.9689 5.5981 20.2028 5.8974 19.2815L7.41589 14.6075C7.54974 14.1955 7.40309 13.7441 7.05263 13.4895L3.07683 10.6007C2.29317 10.0313 2.69592 8.79172 3.66461 8.79168L8.57911 8.79149C9.01231 8.79148 9.39623 8.51254 9.53011 8.10055L11.049 3.42664Z" fill="#FF9900"/>
<path d="M35.049 3.42664C35.3483 2.50537 36.6517 2.50538 36.951 3.42664L38.4699 8.10055C38.6038 8.51254 38.9877 8.79148 39.4209 8.79149L44.3354 8.79168C45.3041 8.79172 45.7068 10.0313 44.9232 10.6007L40.9474 13.4895C40.5969 13.7441 40.4503 14.1955 40.5841 14.6075L42.1026 19.2815C42.4019 20.2028 41.3475 20.9689 40.5638 20.3995L36.5878 17.511C36.2373 17.2564 35.7627 17.2564 35.4122 17.511L31.4362 20.3995C30.6525 20.9689 29.5981 20.2028 29.8974 19.2815L31.4159 14.6075C31.5497 14.1955 31.4031 13.7441 31.0526 13.4895L27.0768 10.6007C26.2932 10.0313 26.6959 8.79172 27.6646 8.79168L32.5791 8.79149C33.0123 8.79148 33.3962 8.51254 33.5301 8.10055L35.049 3.42664Z" fill="#FF9900"/>
<path d="M59.049 3.42664C59.3483 2.50537 60.6517 2.50538 60.951 3.42664L62.4699 8.10055C62.6038 8.51254 62.9877 8.79148 63.4209 8.79149L68.3354 8.79168C69.3041 8.79172 69.7068 10.0313 68.9232 10.6007L64.9474 13.4895C64.5969 13.7441 64.4503 14.1955 64.5841 14.6075L66.1026 19.2815C66.4019 20.2028 65.3475 20.9689 64.5638 20.3995L60.5878 17.511C60.2373 17.2564 59.7627 17.2564 59.4122 17.511L55.4362 20.3995C54.6525 20.9689 53.5981 20.2028 53.8974 19.2815L55.4159 14.6075C55.5497 14.1955 55.4031 13.7441 55.0526 13.4895L51.0768 10.6007C50.2932 10.0313 50.6959 8.79172 51.6646 8.79168L56.5791 8.79149C57.0123 8.79148 57.3962 8.51254 57.5301 8.10055L59.049 3.42664Z" fill="#FF9900"/>
<path d="M83.049 3.42664C83.3483 2.50537 84.6517 2.50538 84.951 3.42664L86.4699 8.10055C86.6038 8.51254 86.9877 8.79148 87.4209 8.79149L92.3354 8.79168C93.3041 8.79172 93.7068 10.0313 92.9232 10.6007L88.9474 13.4895C88.5969 13.7441 88.4503 14.1955 88.5841 14.6075L90.1026 19.2815C90.4019 20.2028 89.3475 20.9689 88.5638 20.3995L84.5878 17.511C84.2373 17.2564 83.7627 17.2564 83.4122 17.511L79.4362 20.3995C78.6525 20.9689 77.5981 20.2028 77.8974 19.2815L79.4159 14.6075C79.5497 14.1955 79.4031 13.7441 79.0526 13.4895L75.0768 10.6007C74.2932 10.0313 74.6959 8.79172 75.6646 8.79168L80.5791 8.79149C81.0123 8.79148 81.3962 8.51254 81.5301 8.10055L83.049 3.42664Z" fill="#FF9900"/>
<path d="M107.049 3.42664C107.348 2.50537 108.652 2.50538 108.951 3.42664L110.47 8.10055C110.604 8.51254 110.988 8.79148 111.421 8.79149L116.335 8.79168C117.304 8.79172 117.707 10.0313 116.923 10.6007L112.947 13.4895C112.597 13.7441 112.45 14.1955 112.584 14.6075L114.103 19.2815C114.402 20.2028 113.347 20.9689 112.564 20.3995L108.588 17.511C108.237 17.2564 107.763 17.2564 107.412 17.511L103.436 20.3995C102.653 20.9689 101.598 20.2028 101.897 19.2815L103.416 14.6075C103.55 14.1955 103.403 13.7441 103.053 13.4895L99.0768 10.6007C98.2932 10.0313 98.6959 8.79172 99.6646 8.79168L104.579 8.79149C105.012 8.79148 105.396 8.51254 105.53 8.10055L107.049 3.42664Z" fill="#FF9900"/>
</svg>
